<svg xmlns="http://www.w3.org/2000/svg" width="16" height="16" viewBox="0 0 16 16" fill="none">
    <path d="M7.73332 11.2C7.66328 11.4539 7.54392 11.6915 7.38205 11.8992C7.22018 12.107 7.01898 12.2808 6.78993 12.4108C6.56088 12.5408 6.30847 12.6244 6.0471 12.6569C5.78574 12.6894 5.52054 12.67 5.26665 12.6C5.01276 12.5299 4.77515 12.4106 4.56739 12.2487C4.35963 12.0868 4.18579 11.8856 4.05578 11.6566C3.92578 11.4275 3.84217 11.1751 3.80972 10.9138C3.77726 10.6524 3.79661 10.3872 3.86665 10.1333M2 7.33333L14 4V12L2 9.33333V7.33333Z" stroke="#3F3F46" stroke-linecap="round" stroke-linejoin="round"/>
    </svg>