<svg width="32" height="32" viewBox="0 0 32 32" fill="none" xmlns="http://www.w3.org/2000/svg">
    <g clip-path="url(#clip0_292_8641)">
    <path d="M22.6245 27.4652C22.72 27.47 22.8251 27.4749 22.9254 27.4749C27.9307 27.4749 32 22.3267 32 16.0001C32 9.67358 27.9307 4.52539 22.9254 4.52539C20.2221 4.52539 18.2639 6.37024 16.8502 8.64974C17.8436 10.4366 18.5505 12.3443 19.0711 13.8704C20.0072 11.5377 21.3923 8.87189 22.9254 8.87189C25.514 8.87189 27.7015 12.1366 27.7015 16.0001C27.7015 19.8637 25.514 23.1284 22.9254 23.1284C22.849 23.1284 22.7726 23.1236 22.6961 23.1091C22.6818 23.1091 22.6675 23.1091 22.6532 23.0994C22.6054 23.0898 22.5624 23.0801 22.5147 23.0656C22.4717 23.0511 22.4239 23.0366 22.3762 23.0173C21.9941 22.8628 21.6072 22.5537 21.2156 22.0804C21.1774 22.0369 21.1391 21.9935 21.1057 21.9452C21.0245 21.8438 20.9433 21.7375 20.8621 21.6216C20.8096 21.5492 20.7618 21.4767 20.7093 21.3994C20.3511 20.8634 19.9929 20.2017 19.6299 19.4194C19.5248 19.1972 19.4197 18.9606 19.3147 18.7143C19.2621 18.5935 19.2096 18.468 19.157 18.3424C19.0138 18.0092 18.8753 17.6518 18.7367 17.2799C18.6126 16.9419 18.4836 16.5893 18.3547 16.2271C18.326 16.1595 18.3021 16.0871 18.2782 16.0146L18.2782 16.0098C18.2018 15.778 18.1206 15.5413 18.0394 15.2999C17.5857 13.9331 16.9457 11.9965 16.0096 10.142C16.0048 10.1227 15.9953 10.1082 15.981 10.0889C15.8997 9.9247 15.8138 9.76051 15.7278 9.60112C15.6275 9.42245 15.532 9.24375 15.4269 9.06505C15.3266 8.8912 15.2215 8.71734 15.1069 8.54349C15.0305 8.41793 14.9493 8.29719 14.8681 8.17645C14.7248 7.96395 14.572 7.75145 14.4144 7.54861C14.295 7.39407 14.1756 7.24435 14.0514 7.09466C13.9177 6.94012 13.7839 6.79522 13.6454 6.65034C13.5356 6.53443 13.4209 6.42336 13.3063 6.31711C13.2442 6.25433 13.1774 6.19638 13.1105 6.13842C13.058 6.09013 13.0054 6.04666 12.9529 6.0032C12.9004 5.95973 12.8478 5.91627 12.7905 5.8728C12.7236 5.81485 12.6568 5.76656 12.5851 5.71343C12.3845 5.56855 12.1792 5.43333 11.969 5.31259C11.8496 5.24015 11.7254 5.17737 11.6013 5.11458C11.3099 4.9697 11.0042 4.84896 10.6842 4.7572C10.6269 4.73789 10.5696 4.7234 10.5123 4.70891C10.3643 4.67027 10.2066 4.63647 10.049 4.60749C9.9726 4.593 9.89141 4.58334 9.81499 4.57369C9.74812 4.56403 9.68604 4.55437 9.61916 4.54954C9.53796 4.54954 9.46155 4.53505 9.38036 4.53505C9.28007 4.53022 9.17977 4.52539 9.0747 4.52539C4.06939 4.52539 -4.03973e-06 9.67357 -4.31627e-06 16.0001C-4.59282e-06 22.3267 4.06939 27.4749 9.0747 27.4749C11.7923 27.4749 13.7505 25.6397 15.1738 23.3699C14.1804 21.5975 13.4687 19.6995 12.9481 18.1686C12.012 20.4915 10.6269 23.1284 9.0747 23.1284C6.48615 23.1284 4.29858 19.8637 4.29858 16.0001C4.29858 12.1366 6.48615 8.87189 9.0747 8.87189C9.14156 8.87189 9.20364 8.87671 9.27052 8.88638C9.30395 8.8912 9.33259 8.89604 9.36604 8.90569C9.40903 8.91051 9.45677 8.925 9.49976 8.93949C9.65261 8.98296 9.80544 9.05541 9.95349 9.15199C9.99647 9.17615 10.0395 9.20513 10.0824 9.23408C10.1302 9.26791 10.178 9.30171 10.2257 9.34033C10.2783 9.3838 10.326 9.42727 10.3786 9.47556C10.4263 9.51421 10.4741 9.5625 10.5219 9.61079C10.5887 9.67357 10.6556 9.74602 10.7177 9.81845C10.7846 9.8909 10.8466 9.96335 10.9087 10.0454C11.415 10.6733 11.883 11.4991 12.2938 12.3636C12.3463 12.4698 12.3989 12.5809 12.4466 12.6871C12.4848 12.7741 12.523 12.8562 12.5613 12.9431C12.8144 13.5178 13.0436 14.0925 13.2442 14.6238C13.2968 14.7686 13.3493 14.9039 13.3971 15.0391C13.526 15.4013 13.6407 15.7345 13.7409 16.0243C13.8221 16.2609 13.8938 16.4734 13.9511 16.6521C14.4144 18.0382 15.0639 20.0038 16.0096 21.8824C16.1959 22.2446 16.3869 22.6068 16.5923 22.9594C16.6973 23.1332 16.8024 23.3071 16.9123 23.4761C17.132 23.819 17.3612 24.1474 17.6048 24.4661C17.7242 24.6207 17.8484 24.7752 17.9774 24.925C18.1015 25.0698 18.2257 25.2099 18.3547 25.3403C18.3594 25.3403 18.3642 25.3499 18.3738 25.3596C18.4789 25.4707 18.5839 25.5721 18.6938 25.6735C18.923 25.8908 19.1666 26.0937 19.415 26.2772C19.4771 26.3255 19.5391 26.3689 19.606 26.4124C19.926 26.6346 20.2603 26.8277 20.6138 26.9823C20.6567 27.0016 20.6997 27.0209 20.7475 27.0402C20.8096 27.0692 20.8717 27.0934 20.9338 27.1127C21.2633 27.2382 21.6072 27.3348 21.9702 27.3976C22.0418 27.4073 22.1135 27.4169 22.1851 27.4266C22.252 27.4362 22.314 27.4411 22.3762 27.4507C22.4573 27.4507 22.5385 27.4652 22.6245 27.4652Z" fill="black"/>
    </g>
    <defs>
    <clipPath id="clip0_292_8641">
    <rect width="32" height="32" fill="white"/>
    </clipPath>
    </defs>
</svg>
    